<svg xmlns="http://www.w3.org/2000/svg" viewBox="0 0 72 30" width="72" height="30" font-family="Segoe UI, Microsoft YaHei, PingFang SC, Hiragino Sans GB, Noto Sans SC, Helvetica, Arial, sans-serif"><title>Nike</title><g opacity="0"><animate attributeName="opacity" from="0" to="1" begin="0s" dur="0.5s" fill="freeze"/><g><animateTransform attributeName="transform" type="translate" values="0 1.2;0 -1.2;0 1.2" calcMode="spline" keySplines="0.4 0 0.6 1;0.4 0 0.6 1" keyTimes="0;0.5;1" dur="3.6s" begin="-1.2s" repeatCount="indefinite"/><rect x="1" y="4" width="70" height="22" rx="11" fill="#F2A33C" fill-opacity="0.07" stroke="#F2A33C" stroke-width="1.3"/><g transform="translate(12,8) scale(0.5833)"><path d="M24 7.8L6.442 15.276c-1.456.616-2.679.925-3.668.925-1.12 0-1.933-.392-2.437-1.177-.317-.504-.41-1.143-.28-1.918.13-.775.476-1.6 1.036-2.478.467-.71 1.232-1.643 2.297-2.8a6.122 6.122 0 00-.784 1.848c-.28 1.195-.028 2.072.756 2.632.373.261.886.392 1.54.392.522 0 1.11-.084 1.764-.252L24 7.8z" fill="#F2A33C"/></g><text x="32" y="19" font-size="12" font-weight="600" fill="#F2A33C">Nike</text></g></g></svg>
